<?xml version="1.0" encoding="UTF-8" standalone="no"?>
<!-- Created with Inkscape (http://www.inkscape.org/) -->
<svg
   xmlns:dc="http://purl.org/dc/elements/1.1/"
   xmlns:cc="http://creativecommons.org/ns#"
   xmlns:rdf="http://www.w3.org/1999/02/22-rdf-syntax-ns#"
   xmlns:svg="http://www.w3.org/2000/svg"
   xmlns="http://www.w3.org/2000/svg"
   xmlns:xlink="http://www.w3.org/1999/xlink"
   xmlns:sodipodi="http://sodipodi.sourceforge.net/DTD/sodipodi-0.dtd"
   xmlns:inkscape="http://www.inkscape.org/namespaces/inkscape"
   width="744.09448819"
   height="1052.3622047"
   id="svg2"
   sodipodi:version="0.32"
   inkscape:version="0.46"
   sodipodi:docname="ball.svg"
   inkscape:output_extension="org.inkscape.output.svg.inkscape"
   inkscape:export-filename="/home/rodrigo/projetos/neoballnoid/images/original/ball.png"
   inkscape:export-xdpi="90"
   inkscape:export-ydpi="90">
  <defs
     id="defs4">
    <linearGradient
       inkscape:collect="always"
       id="linearGradient3563">
      <stop
         style="stop-color:#ff0000;stop-opacity:1;"
         offset="0"
         id="stop3565" />
      <stop
         style="stop-color:#ff0000;stop-opacity:0;"
         offset="1"
         id="stop3567" />
    </linearGradient>
    <linearGradient
       inkscape:collect="always"
       id="linearGradient3181">
      <stop
         style="stop-color:#ff0000;stop-opacity:1;"
         offset="0"
         id="stop3183" />
      <stop
         style="stop-color:#ff0000;stop-opacity:0"
         offset="1"
         id="stop3185" />
    </linearGradient>
    <inkscape:perspective
       sodipodi:type="inkscape:persp3d"
       inkscape:vp_x="0 : 526.18109 : 1"
       inkscape:vp_y="0 : 1000 : 0"
       inkscape:vp_z="744.09448 : 526.18109 : 1"
       inkscape:persp3d-origin="372.04724 : 350.78739 : 1"
       id="perspective10" />
    <linearGradient
       inkscape:collect="always"
       xlink:href="#linearGradient3181"
       id="linearGradient3189"
       x1="383.02634"
       y1="222.76982"
       x2="381.83749"
       y2="281.58298"
       gradientUnits="userSpaceOnUse" />
    <filter
       inkscape:collect="always"
       id="filter3557">
      <feGaussianBlur
         inkscape:collect="always"
         stdDeviation="1.6945242"
         id="feGaussianBlur3559" />
    </filter>
    <linearGradient
       inkscape:collect="always"
       xlink:href="#linearGradient3563"
       id="linearGradient3575"
       x1="362.85715"
       y1="423.79074"
       x2="362.85715"
       y2="346.98254"
       gradientUnits="userSpaceOnUse" />
    <filter
       inkscape:collect="always"
       id="filter3310">
      <feGaussianBlur
         inkscape:collect="always"
         stdDeviation="5.6910569"
         id="feGaussianBlur3312" />
    </filter>
    <filter
       inkscape:collect="always"
       id="filter3506">
      <feGaussianBlur
         inkscape:collect="always"
         stdDeviation="5.6910569"
         id="feGaussianBlur3508" />
    </filter>
    <filter
       inkscape:collect="always"
       id="filter3562"
       x="-0.12682927"
       width="1.2536585"
       y="-0.12682927"
       height="1.2536585">
      <feGaussianBlur
         inkscape:collect="always"
         stdDeviation="10.569106"
         id="feGaussianBlur3564" />
    </filter>
  </defs>
  <sodipodi:namedview
     id="base"
     pagecolor="#ffffff"
     bordercolor="#666666"
     borderopacity="1.0"
     gridtolerance="10000"
     guidetolerance="10"
     objecttolerance="10"
     inkscape:pageopacity="0.0"
     inkscape:pageshadow="2"
     inkscape:zoom="0.98994949"
     inkscape:cx="72.44229"
     inkscape:cy="665.86632"
     inkscape:document-units="px"
     inkscape:current-layer="layer1"
     showgrid="false"
     inkscape:window-width="945"
     inkscape:window-height="674"
     inkscape:window-x="92"
     inkscape:window-y="81" />
  <metadata
     id="metadata7">
    <rdf:RDF>
      <cc:Work
         rdf:about="">
        <dc:format>image/svg+xml</dc:format>
        <dc:type
           rdf:resource="http://purl.org/dc/dcmitype/StillImage" />
      </cc:Work>
    </rdf:RDF>
  </metadata>
  <g
     inkscape:label="Layer 1"
     inkscape:groupmode="layer"
     id="layer1">
    <path
       sodipodi:type="arc"
       style="opacity:1;fill:#000000;fill-opacity:1;fill-rule:nonzero;stroke:none;stroke-opacity:1"
       id="path2383"
       sodipodi:cx="362.85715"
       sodipodi:cy="323.79074"
       sodipodi:rx="100"
       sodipodi:ry="100"
       d="M 462.85715,323.79074 A 100,100 0 1 1 262.85715,323.79074 A 100,100 0 1 1 462.85715,323.79074 z"
       transform="translate(21.213203,-2.0203051)" />
    <path
       style="opacity:1;fill:url(#linearGradient3189);fill-opacity:1;fill-rule:nonzero;stroke:none;stroke-opacity:1;filter:url(#filter3557)"
       d="M 372.88304,325.59571 C 350.06075,322.55002 336.95599,367.75332 326.03225,354.2831 C 319.24037,345.90791 300.94171,309.7279 300.95712,299.7372 C 300.96883,292.1441 313.6079,261.22839 317.30309,254.66686 C 325.81965,239.54393 343.43874,228.40452 365.66665,224.08963 C 371.52547,222.95232 374.0428,222.76041 382.97441,222.77017 C 391.89664,222.77992 394.46752,222.98171 400.5419,224.14908 C 453.5116,234.32877 473.14367,267.72498 440.136,306.51768 C 416.95889,333.75688 416.57121,353.03125 404.09624,355.70945 C 398.67097,356.87418 389.38031,406.31935 380.63958,406.46196 C 374.89111,406.55575 373.87416,325.72799 372.88304,325.59571 L 372.88304,325.59571 z"
       id="path2385"
       transform="matrix(0.8984586,0,0,0.7501477,39.782492,55.598642)"
       sodipodi:nodetypes="cssssssssscc" />
    <path
       sodipodi:type="arc"
       style="opacity:1;fill:url(#linearGradient3575);fill-opacity:1;fill-rule:nonzero;stroke:none;stroke-opacity:1"
       id="path3561"
       sodipodi:cx="362.85715"
       sodipodi:cy="323.79074"
       sodipodi:rx="178.27232"
       sodipodi:ry="100"
       d="M 541.12947,323.79074 A 178.27232,100 0 1 1 184.58482,323.79074 A 178.27232,100 0 1 1 541.12947,323.79074 z"
       transform="matrix(0.3484516,0,0,0.3484516,258.93504,272.33102)" />
    <path
       sodipodi:type="arc"
       style="opacity:1;fill:#000000;fill-opacity:1;fill-rule:nonzero;stroke:none;stroke-opacity:1"
       id="path2392"
       sodipodi:cx="362.85715"
       sodipodi:cy="323.79074"
       sodipodi:rx="100"
       sodipodi:ry="100"
       d="M 462.85715,323.79074 A 100,100 0 1 1 262.85715,323.79074 A 100,100 0 1 1 462.85715,323.79074 z"
       transform="translate(-229.51701,2.2717598)" />
    <path
       sodipodi:type="arc"
       style="opacity:1;fill:#1a1a1a;fill-opacity:1;fill-rule:nonzero;stroke:none;stroke-opacity:1;filter:url(#filter3562)"
       id="path2398"
       sodipodi:cx="362.85715"
       sodipodi:cy="323.79074"
       sodipodi:rx="100"
       sodipodi:ry="100"
       d="M 462.85715,323.79074 A 100,100 0 1 1 262.85715,323.79074 A 100,100 0 1 1 462.85715,323.79074 z"
       transform="matrix(0.787868,0,0,0.787868,-152.5434,53.765237)" />
    <path
       sodipodi:type="arc"
       style="opacity:1;fill:#333333;fill-opacity:1;fill-rule:nonzero;stroke:none;stroke-opacity:1;filter:url(#filter3506)"
       id="path2396"
       sodipodi:cx="362.85715"
       sodipodi:cy="323.79074"
       sodipodi:rx="100"
       sodipodi:ry="100"
       d="M 462.85715,323.79074 A 100,100 0 1 1 262.85715,323.79074 A 100,100 0 1 1 462.85715,323.79074 z"
       transform="matrix(0.5605837,0,0,0.5605837,-71.081801,109.65982)" />
    <path
       sodipodi:type="arc"
       style="opacity:1;fill:#ffffff;fill-opacity:1;fill-rule:nonzero;stroke:none;stroke-opacity:1;filter:url(#filter3310)"
       id="path2394"
       sodipodi:cx="362.85715"
       sodipodi:cy="323.79074"
       sodipodi:rx="100"
       sodipodi:ry="100"
       d="M 462.85715,323.79074 A 100,100 0 1 1 262.85715,323.79074 A 100,100 0 1 1 462.85715,323.79074 z"
       transform="matrix(0.2423856,0,0,0.2423856,44.378645,186.97115)" />
  </g>
</svg>
